<svg xmlns="http://www.w3.org/2000/svg" width="128" height="128" viewBox="0 0 453.54 453.54">
  <path fill="#24A1DE" d="M226.77 0C101.53 0 0 101.53 0 226.77s101.53 226.77 226.77 226.77 226.77-101.53 226.77-226.77S352.01 0 226.77 0z"/>
  <path fill="#fff" d="M103.11 223.77l229.5-88.56c10.62-3.87 19.93 2.53 16.49 18.87l-39.08 184.2c-2.94 13.26-10.79 16.57-21.89 10.33l-59.52-43.87-28.73 27.64c-3.18 3.18-5.84 5.84-11.97 5.84l4.28-60.66 110.4-99.76c4.8-4.27-1.04-6.64-7.44-2.37L158.7 261.35l-58.7-18.33c-12.77-4-12.99-12.8-3.11-19.25z"/>
</svg>
